<svg xmlns="http://www.w3.org/2000/svg" viewBox="0 0 64 64" width="64" height="64">
  <circle cx="32" cy="32" r="30" fill="#F7931A"/>
  <path d="M42.3 33.6c.6-4-2.4-6.2-6.5-7.6l1.3-5.3-3.2-.8-1.3 5.2c-.8-.2-1.7-.4-2.5-.6l1.3-5.2-3.2-.8-1.3 5.3c-.7-.2-1.4-.3-2-.5l0 0-4.4-1.1-.9 3.4s2.4.5 2.3.6c1.3.3 1.5 1.2 1.5 1.9l-1.5 6c.1 0 .2.1.4.1-.1 0-.2 0-.4-.1l-2.1 8.4c-.2.4-.6 1-.1.5.1.1-2.3-.6-2.3-.6l-1.6 3.7 4.2 1c.8.2 1.5.4 2.3.6l-1.3 5.4 3.2.8 1.3-5.3c.9.2 1.7.4 2.5.6l-1.3 5.3 3.2.8 1.3-5.4c5.4 1 9.5.6 11.3-4.3 1.4-3.9-.1-6.2-3-7.7 2.1-.5 3.7-1.9 4.1-4.7zm-7.4 10.3c-1 4-7.8 1.8-10 1.3l1.8-7.1c2.2.6 9.3 1.7 8.2 5.8zm1-10.5c-.9 3.7-6.6 1.8-8.5 1.4l1.6-6.5c1.8.5 7.7 1.3 6.8 5.1z" fill="white"/>
</svg> 